<svg width="16" height="16" viewBox="0 0 16 16" fill="none" xmlns="http://www.w3.org/2000/svg">
<path fill-rule="evenodd" clip-rule="evenodd" d="M1.2792 0.219905C0.986625 -0.0733016 0.512259 -0.0733015 0.219679 0.219905C-0.0729009 0.513111 -0.0729009 0.988492 0.219679 1.2817L6.9407 8.0171L0.257839 14.7143C-0.0347409 15.0075 -0.0347409 15.4829 0.257839 15.7761C0.550419 16.0693 1.02478 16.0693 1.31736 15.7761L8.00023 9.07889L14.6829 15.7759C14.9755 16.0691 15.4498 16.0691 15.7424 15.7759C16.035 15.4827 16.035 15.0073 15.7424 14.7141L9.05975 8.0171L15.7806 1.28189C16.0732 0.988689 16.0732 0.513308 15.7806 0.220102C15.488 -0.0731045 15.0136 -0.0731043 14.7211 0.220102L8.00023 6.95531L1.2792 0.219905Z" fill="black"/>
</svg>
