<svg width="24" height="24" viewBox="0 0 24 24" fill="none" xmlns="http://www.w3.org/2000/svg">
<path fill-rule="evenodd" clip-rule="evenodd" d="M2.50024 2.75C2.08603 2.75 1.75024 3.08579 1.75024 3.5C1.75024 3.91421 2.08603 4.25 2.50024 4.25H4.61947L8.24682 13.9836L8.24685 13.9836C8.66374 15.1026 9.73154 15.8451 10.9266 15.8451H19.3872C19.8014 15.8451 20.1372 15.5093 20.1372 15.0951C20.1372 14.6809 19.8014 14.3451 19.3872 14.3451H10.9266C10.3584 14.3451 9.85077 13.9923 9.65245 13.4599L9.65242 13.4598L9.3615 12.6792H17.2388C18.9017 12.6792 20.3967 11.6113 20.818 10.0234L20.8181 10.0232L22.2225 4.73529C22.2823 4.51022 22.2341 4.27014 22.0921 4.08555C21.9502 3.90095 21.7305 3.79277 21.4976 3.79277H11.4516C11.0374 3.79277 10.7016 4.12856 10.7016 4.54277C10.7016 4.95699 11.0374 5.29277 11.4516 5.29277H20.5224L19.3683 9.6384L19.3682 9.6386C19.1353 10.5167 18.2772 11.1792 17.2388 11.1792H8.83521C8.82434 11.1792 8.81352 11.1794 8.80276 11.1799L5.84314 3.2381C5.73377 2.94462 5.45355 2.75 5.14036 2.75H2.50024ZM8.79383 19.316C8.79383 19.0017 9.04858 18.747 9.36283 18.747C9.67708 18.747 9.93184 19.0017 9.93184 19.316C9.93184 19.6302 9.67708 19.885 9.36283 19.885C9.04858 19.885 8.79383 19.6302 8.79383 19.316ZM9.36283 17.247C8.22015 17.247 7.29383 18.1733 7.29383 19.316C7.29383 20.4587 8.22015 21.385 9.36283 21.385C10.5055 21.385 11.4318 20.4587 11.4318 19.316C11.4318 18.1733 10.5055 17.247 9.36283 17.247ZM18.8597 18.747C18.5454 18.747 18.2907 19.0017 18.2907 19.316C18.2907 19.6302 18.5454 19.885 18.8597 19.885C19.1739 19.885 19.4287 19.6302 19.4287 19.316C19.4287 19.0017 19.1739 18.747 18.8597 18.747ZM16.7907 19.316C16.7907 18.1733 17.717 17.247 18.8597 17.247C20.0023 17.247 20.9287 18.1733 20.9287 19.316C20.9287 20.4587 20.0023 21.385 18.8597 21.385C17.717 21.385 16.7907 20.4587 16.7907 19.316Z" fill="#EA1917"/>
</svg>