<svg width="24" height="24" viewBox="0 0 24 24" fill="none" xmlns="http://www.w3.org/2000/svg">
<path fill-rule="evenodd" clip-rule="evenodd" d="M7.50412 7.32076C7.50412 5.07254 9.32666 3.25 11.5749 3.25C13.8231 3.25 15.6456 5.07254 15.6456 7.32076C15.6456 9.56898 13.8231 11.3915 11.5749 11.3915C9.32666 11.3915 7.50412 9.56898 7.50412 7.32076ZM11.5749 1.75C8.49823 1.75 6.00412 4.24411 6.00412 7.32076C6.00412 9.34963 7.08872 11.1252 8.70974 12.0992C4.68138 13.3254 1.75049 17.0699 1.75049 21.4993C1.75049 21.9135 2.08627 22.2493 2.50049 22.2493H20.6492C21.0634 22.2493 21.3992 21.9135 21.3992 21.4993C21.3992 17.0699 18.4684 13.3254 14.44 12.0992C16.061 11.1252 17.1456 9.34964 17.1456 7.32076C17.1456 4.24411 14.6515 1.75 11.5749 1.75ZM11.5749 13.1749C15.9197 13.1749 19.4868 16.5031 19.8659 20.7493H3.28381C3.66293 16.5031 7.22998 13.1749 11.5749 13.1749Z" fill="#EA1917"/>
</svg>
