<svg width="24" height="24" viewBox="0 0 24 24" fill="none" xmlns="http://www.w3.org/2000/svg">
<path fill-rule="evenodd" clip-rule="evenodd" d="M9.44023 3.5419C7.15445 4.18018 5.25725 5.74978 4.18346 7.81589H7.46779C7.88924 6.35413 8.5468 4.91871 9.44023 3.5419ZM11.496 3.2327L11.3572 3.41724C10.2989 4.82409 9.5253 6.30408 9.03591 7.81589H14.4275C13.9381 6.30408 13.1644 4.82409 12.1062 3.41724L11.9674 3.23269C11.8891 3.23056 11.8105 3.22949 11.7317 3.22949C11.6529 3.22949 11.5743 3.23057 11.496 3.2327ZM7.1196 9.31589H3.57825C3.35186 10.0814 3.23035 10.8919 3.23035 11.7309C3.23035 12.5698 3.35186 13.3803 3.57824 14.1458H7.1075C6.8318 12.5454 6.83594 10.9216 7.1196 9.31589ZM8.63242 14.1458C8.32333 12.5476 8.32751 10.9217 8.64538 9.31589H14.818C15.1359 10.9217 15.14 12.5476 14.8309 14.1458H8.63242ZM7.45017 15.6458H4.18345C5.25518 17.708 7.14719 19.2755 9.42713 19.9162C8.52755 18.5461 7.86864 17.1116 7.45017 15.6458ZM11.4986 20.2291L11.3533 20.0393C10.2842 18.6432 9.5055 17.1644 9.01758 15.6458H14.4458C13.9579 17.1644 13.1792 18.6432 12.1101 20.0393L11.9647 20.2291C11.8873 20.2312 11.8096 20.2322 11.7317 20.2322C11.6538 20.2322 11.5761 20.2312 11.4986 20.2291ZM16.3438 9.31589C16.6274 10.9216 16.6316 12.5454 16.3559 14.1458H19.8852C20.1116 13.3803 20.2331 12.5698 20.2331 11.7309C20.2331 10.8919 20.1116 10.0814 19.8852 9.31589H16.3438ZM16.0132 15.6458C15.5947 17.1116 14.9358 18.5461 14.0362 19.9162C16.3162 19.2756 18.2082 17.708 19.28 15.6458H16.0132ZM14.0231 3.54187C14.9166 4.91869 15.5741 6.35413 15.9956 7.81589H19.28C18.2062 5.74976 16.3089 4.18014 14.0231 3.54187ZM1.73035 11.7309C1.73035 6.20726 6.20811 1.72949 11.7317 1.72949C17.2553 1.72949 21.7331 6.20726 21.7331 11.7309C21.7331 17.2545 17.2553 21.7322 11.7317 21.7322C6.20811 21.7322 1.73035 17.2545 1.73035 11.7309Z" fill="black"/>
</svg>
