<svg width="24" height="24" viewBox="0 0 24 24" fill="none" xmlns="http://www.w3.org/2000/svg">
<path fill-rule="evenodd" clip-rule="evenodd" d="M3.25024 10.3615C3.25024 6.43394 6.43418 3.25 10.3618 3.25C14.2893 3.25 17.4733 6.43394 17.4733 10.3615C17.4733 14.2891 14.2893 17.473 10.3618 17.473C6.43418 17.473 3.25024 14.2891 3.25024 10.3615ZM10.3618 1.75C5.60575 1.75 1.75024 5.60551 1.75024 10.3615C1.75024 15.1175 5.60575 18.973 10.3618 18.973C12.4916 18.973 14.4408 18.1998 15.9441 16.9188L20.9661 22.0256C21.2565 22.321 21.7314 22.325 22.0267 22.0345C22.322 21.7441 22.326 21.2692 22.0356 20.9739L16.9974 15.8506C18.2315 14.3604 18.9733 12.4476 18.9733 10.3615C18.9733 5.60551 15.1178 1.75 10.3618 1.75Z" fill="black"/>
</svg>
