<svg width="12" height="12" viewBox="0 0 12 12" fill="none" xmlns="http://www.w3.org/2000/svg">
<g clip-path="url(#clip0_1165_26310)">
<path fill-rule="evenodd" clip-rule="evenodd" d="M10.741 11.7846C11.0343 12.0769 11.5041 12.0711 11.7904 11.7716C12.0767 11.4721 12.071 10.9924 11.7777 10.7L7.06293 6.00076L11.7786 1.3001C12.0719 1.00775 12.0775 0.527974 11.7912 0.228495C11.5049 -0.0709838 11.0351 -0.0767614 10.7418 0.215592L6.00048 4.94181L1.25854 0.215509C0.965239 -0.076826 0.495387 -0.0710204 0.209099 0.228476C-0.0771901 0.527973 -0.0715046 1.00775 0.221798 1.30008L4.93809 6.00083L0.223831 10.7001C-0.0694537 10.9925 -0.0751112 11.4722 0.211195 11.7717C0.497501 12.0712 0.967353 12.077 1.26064 11.7846L6.00054 7.05977L10.741 11.7846Z" fill="white"/>
</g>
<defs>
<clipPath id="clip0_1165_26310">
<rect width="12" height="12" fill="white"/>
</clipPath>
</defs>
</svg>
